<svg width="52" height="34" viewBox="0 0 52 34" fill="none" xmlns="http://www.w3.org/2000/svg">
<path fill-rule="evenodd" clip-rule="evenodd" d="M43.3333 15.4267C43.3263 14.0806 42.9798 12.7582 42.3259 11.5816C41.6719 10.4051 40.7317 9.41265 39.5922 8.69609C38.4528 7.97952 37.1509 7.56205 35.8073 7.48233C34.4636 7.40261 33.1215 7.66321 31.9053 8.24C29.908 3.86 25.404 0.804001 20.1693 0.804001C13.08 0.804001 7.33334 6.408 7.33334 13.3187C7.33334 14.1187 7.41067 14.8987 7.55734 15.656C5.37194 16.2461 3.47547 17.6102 2.22105 19.4945C0.966627 21.3788 0.439757 23.6548 0.738545 25.8986C1.03733 28.1425 2.14141 30.2012 3.8452 31.6916C5.54899 33.182 7.73635 34.0024 10 34H42C44.3626 34.0043 46.6388 33.1124 48.3697 31.5043C50.1005 29.8962 51.157 27.6915 51.3262 25.335C51.4954 22.9785 50.7646 20.6455 49.2812 18.8066C47.7978 16.9678 45.6723 15.7599 43.3333 15.4267Z" fill="#DDDDDD"/>
</svg>
